<svg xmlns="http://www.w3.org/2000/svg" width="126" height="40" viewBox="0 0 126 40">
    <path fill="#333333" fill-rule="evenodd" d="M29.043 5.511c.344.66.495 1.422.688 2.15.03.117-.16.38-.304.435-.238.09-.375-.064-.422-.335-.396-2.305-1.772-3.943-3.759-5.106-1.728-1.011-3.601-1.576-5.647-1.486-1.712.075-3.23.713-4.655 1.565-1.669.997-3.14 2.257-4.411 3.704-2.03 2.31-3.575 4.917-4.707 7.759-.034.087-.05.181.003.312.106-.169.201-.345.318-.507 1.65-2.274 3.04-4.737 5.076-6.73.048-.047.084-.107.136-.146.27-.205.56-.449.879-.122.327.336.02.57-.217.774-1.572 1.344-2.751 3.008-3.947 4.657-.787 1.086-1.564 2.179-2.321 3.284-.221.324-.414.686-.523 1.058-.29.989-.574 1.983-.769 2.992-.1.522-.059 1.086.007 1.62.132 1.086.3 2.17.5 3.245.265 1.423.92 2.696 1.716 3.894 1.41 2.124 3.433 3.349 5.953 3.84 2.212.433 4.433.396 6.659.16.241-.024.54-.142.688-.317 1.362-1.624 2.708-3.262 4.036-4.913 1.107-1.375 1.957-2.901 2.703-4.49.08-.171.376-.245.571-.364.02.222.122.48.043.66-.262.602-.59 1.176-.89 1.763-.76 1.49-1.722 2.857-2.756 4.172-.695.882-1.435 1.73-2.158 2.59-.168.201-.345.395-.474.701.607-.114 1.226-.192 1.821-.35 1.728-.463 3.463-.907 5.164-1.45 3.008-.959 5.877-2.243 8.725-3.594 2.15-1.02 4.413-1.81 6.62-2.716 1.033-.425 2.045-.903 3.085-1.313.395-.155.839-.238 1.266-.259.62-.03.78.266.489.805-.384.71-.772 1.42-1.156 2.13-.037.068-.054.147-.134.367.286-.191.452-.31.626-.417 1.248-.763 2.494-1.529 3.748-2.281.151-.09.345-.125.524-.159.833-.16 1.02.016.978.845-.028.558-.059 1.123-.009 1.678.11 1.223.84 2.132 1.83 2.75 1.559.974 3.328 1.443 5.158 1.676 1.671.213 3.353.246 4.997-.116 1.087-.24 2.157-.618 3.18-1.056 1.548-.662 3.044-1.438 4.57-2.147.42-.195.556-.45.453-.9-.193-.85.003-1.626.544-2.324.411-.53.927-.83 1.618-.86.932-.038 1.476.594 1.262 1.497-.19.797-.702 1.368-1.34 1.852l-.706.536c.654.692 1.394 1.136 2.227 1.461 2.583 1.008 5.31 1.335 8.04 1.62 2.147.224 4.3.398 6.454.56.935.07 1.877.081 2.815.074 1.979-.015 3.956-.054 5.934-.095.922-.02 1.843-.07 2.765-.097 2.77-.081 5.541-.213 8.312-.218 2.242-.005 4.487.102 6.725.241 1.367.086 2.722.332 4.084.495 1.087.13 2.176.245 3.265.366.066.008.147-.009.197.022.286.177.797.162.7.684-.091.485-.634.743-1.144.602-.916-.255-1.824-.55-2.755-.74-5.127-1.043-10.326-1.033-15.527-.942-1.961.035-3.921.126-5.882.18-2.43.066-4.86.196-7.289.158-2.243-.035-4.486-.228-6.724-.406-1.686-.133-3.381-.26-5.042-.556-1.905-.338-3.794-.8-5.655-1.327-.768-.216-1.481-.689-2.152-1.14-.38-.256-.631-.207-.993-.046-1.874.834-3.743 1.678-5.642 2.454-1.488.608-3.04 1.078-4.674 1.027-1.633-.05-3.263-.046-4.88-.486-1.371-.374-2.673-.827-3.85-1.602-1.528-1.007-2.083-2.464-1.97-4.216.009-.144 0-.287 0-.547-.938.32-1.701.77-2.37 1.327-1.264 1.053-2.46 2.185-3.711 3.255-.289.246-.67.406-1.032.545-.145.056-.489-.013-.51-.089-.054-.193-.042-.455.054-.632.746-1.375 1.519-2.736 2.277-4.105.078-.14.113-.303.205-.558-.254.06-.428.08-.585.142-2.58 1.007-5.169 1.994-7.732 3.04-1.653.674-3.25 1.48-4.905 2.15-2.227.9-4.458 1.806-6.74 2.556-1.722.566-3.524.905-5.297 1.317-.835.194-1.556.448-2.23 1.081-1.068 1.005-2.305 1.85-3.534 2.673-1.068.715-2.204 1.342-3.344 1.943-1.85.974-3.808 1.452-5.906.947-1.175-.283-2.19-.887-3.099-1.66C1.04 36.097.167 33.597.028 30.841c-.141-2.798.241-5.54 1.359-8.159l.473-1.108c.634-1.476 1.3-2.934 2.201-4.283.162-.243.277-.53.355-.811.586-2.117 1.46-4.098 2.536-6.033.998-1.794 2.136-3.458 3.526-4.957 1.976-2.132 4.233-3.93 7.109-4.718 4.738-1.3 9.544 1.06 11.456 4.738zM3.634 19.378c-.1.164-.223.318-.294.492-.599 1.477-1.237 2.941-1.768 4.44-.796 2.25-1.004 4.598-.729 6.944.248 2.11.9 4.112 2.636 5.58.363.307.78.56 1.11.896.526.537 1.191.804 1.874 1.038 1.471.507 2.925.257 4.324-.252 2.672-.974 4.987-2.538 7.146-4.336.27-.225.514-.478.77-.719-.219-.1-.379-.094-.538-.083-2 .144-3.998.089-5.96-.31-4.622-.937-6.68-3.966-7.943-7.957-.547-1.732-.506-3.54-.456-5.335.004-.124-.023-.248-.036-.372l-.136-.026zm71.277 4.275c-.714.24-1.067 1.037-.906 2.08.77-.317 1.25-.83 1.486-1.548.053-.162.024-.414-.077-.537-.067-.08-.345-.048-.503.005zM33.183 7.758c.385.009.584.093.728.48 1.11 2.993 2.248 5.976 3.38 8.962.061.165.135.326.238.57.707-1.98 1.382-3.87 2.054-5.76.452-1.272.912-2.54 1.339-3.819.139-.415.37-.497.806-.353l-1.115 3.15c-1.017 2.868-2.038 5.735-3.048 8.606-.106.304-.2.513-.609.486-.372-.025-.63-.029-.789-.462-1.123-3.059-2.28-6.105-3.429-9.155-.05-.135-.114-.267-.223-.519-1.196 3.224-2.35 6.34-3.51 9.455-.084.226-.169.59-.32.627-.379.093-.797.047-1.198.026-.07-.004-.16-.154-.194-.251-1.402-3.954-2.8-7.91-4.195-11.866-.01-.027.008-.063.024-.162.507 0 1.025.019 1.541-.006.33-.017.454.115.557.413 1.116 3.217 2.25 6.428 3.38 9.641.037.107.08.212.161.426.345-.926.656-1.759.965-2.592.915-2.467 1.838-4.931 2.736-7.404.135-.372.315-.502.721-.493zm14.352.054v5.468c.202.01.361.026.521.026 2.199.002 4.398-.01 6.596.01.43.004.534-.132.527-.533-.021-1.465-.008-2.93-.008-4.395v-.575h1.854v12.06h-1.832v-6.017h-7.63v6.01H45.7V7.812h1.835zm45.63.007c.148.373-.005.475-.386.473-2.08-.01-4.162-.005-6.242-.005h-.574v5.02h5.277c.219 0 .437.01.655-.001.373-.02.428.157.3.507h-6.233v5.579h.535c2.099 0 4.196.005 6.294-.004.347-.002.521.08.377.483h-9.1V7.82h9.098zm-27.601-.003v12.048h-1.83V7.816h1.83zm15.16 0c.113.312.068.48-.336.476-1.225-.014-2.45-.005-3.675-.005h-.597v11.575H74.22V8.287h-2.925c-.453 0-.906.005-1.359-.001-.379-.005-.379-.01-.377-.47h11.166z"/>
</svg>
